# xmcd
#
# Track frame offsets:
# 150
# 19625
# 36810
# 53447
# 66780
# 78092
# 91105
# 108160
# 119337
# 134767
# 144830
# 163807
# 169595
# 179275
# 189480
# 202895
# 219007
# 232112
# 248915
# 263975
# 272585
# 286042
# 300517
# 312837
# 331777
#
# Disc length: 4622 seconds
#
#
# Revision: 0
# Processed by: cddbd v1.5.1PL2 Copyright (c) Steve Scherf et al.
# Submitted via: FreeRIP 2.945 
#
DISCID=48120c19
DTITLE=Francis Lopes - 25 sucesos
DYEAR=0004
DGENRE=forro
TTITLE0=Lamento de um nordestino
TTITLE1=A carta
TTITLE2=Morango do nordeste
TTITLE3=O gemidinho
TTITLE4=Pout pourri
TTITLE5=Vem morena
TTITLE6=A gente se entrega
TTITLE7=O campeão
TTITLE8=De olho na calcinha
TTITLE9=Vaqueiro ruim
TTITLE10=Forroziando
TTITLE11=Querendo ser aboiador
TTITLE12=Pra sempre te amar
TTITLE13=Que saudade de você
TTITLE14=Páginas de amigos
TTITLE15=O mexe mexe da menina
TTITLE16=Paixão errante
TTITLE17=Vaneirão apaixonado
TTITLE18=Forró do beliscado
TTITLE19=As moças do calendário
TTITLE20=Raimunda
TTITLE21=A nordestina
TTITLE22=Chora bananeira
TTITLE23=Vou te procurar
TTITLE24=Vem me amar
EXTD=
EXTT0=
EXTT1=
EXTT2=
EXTT3=
EXTT4=
EXTT5=
EXTT6=
EXTT7=
EXTT8=
EXTT9=
EXTT10=
EXTT11=
EXTT12=
EXTT13=
EXTT14=
EXTT15=
EXTT16=
EXTT17=
EXTT18=
EXTT19=
EXTT20=
EXTT21=
EXTT22=
EXTT23=
EXTT24=
PLAYORDER=
